# xmcd CD database file
#
# Track frame offsets:
#	150
#	14684
#	25010
#	36134
#	52697
#	66213
#	78698
#	95896
#	114012
#	126704
#	138868
#	158196
#
# Disc length: 2251 seconds
#
# Revision: 1
# Processed by: cddbd v1.5.1PL0 Copyright (c) Steve Scherf et al.
# Submitted via: CDex 1.51
#
DISCID=9d08c90c
DTITLE=Slingblade - 100% Certified Roadhouse Music
DYEAR=2003
DGENRE=Blues
TTITLE0=Bottom of the Bottle
TTITLE1=Old and Grey
TTITLE2=Life Ain't Fair (Can't Have Nothin')
TTITLE3=Down by the River
TTITLE4=Shine in Her Eyes
TTITLE5=Armchair Cowboy
TTITLE6=Old Memories
TTITLE7=North to Wyoming
TTITLE8=Take me Back to Virginia
TTITLE9=Dreams of You
TTITLE10=Waited too Long
TTITLE11=Beverly
EXTD=YEAR: 2003
EXTT0=
EXTT1=
EXTT2=
EXTT3=
EXTT4=
EXTT5=
EXTT6=
EXTT7=
EXTT8=
EXTT9=
EXTT10=
EXTT11=
PLAYORDER=
